<svg width="202" height="202" viewBox="0 0 202 202" fill="none" xmlns="http://www.w3.org/2000/svg">
<rect width="202" height="202" rx="30" fill="black"/>
<path d="M101 84.4297L106.721 94.0957L100.211 95.082L97.4492 94.6875L95.2793 94.0957L101 84.4297Z" fill="url(#paint0_linear_111_56)"/>
<path d="M101 84.627L180.076 50.6841L185.599 60.114L106.721 94.293L101 84.627Z" fill="#4D004D"/>
<path d="M22.0938 50.8945L101 84.6269L95.4766 94.0956L16.1758 60.1659L22.0938 50.8945Z" fill="#4C004C"/>
<path d="M95.1807 184.64L94.9833 93.8983L106.819 94.0956L106.819 184.64L95.1807 184.64Z" fill="#01C051"/>
<path d="M178.324 145.661L114.145 173.165V98.9931L178.324 71.4876V145.661Z" stroke="white" stroke-width="15"/>
<path d="M87.8554 173.165L23.6758 145.661V71.4876L87.8554 98.9931V173.165Z" stroke="white" stroke-width="15"/>
<path d="M101.011 76.5752L40.8697 50.8003L101.011 25.0217L161.152 50.8003L101.011 76.5752ZM101.738 24.7102C101.737 24.7106 101.736 24.711 101.735 24.7114L101.737 24.7103L101.738 24.7102Z" stroke="white" stroke-width="15"/>
<defs>
<linearGradient id="paint0_linear_111_56" x1="101.592" y1="106.129" x2="101" y2="93.7012" gradientUnits="userSpaceOnUse">
<stop offset="0.88" stop-color="#01C051"/>
<stop offset="0.92" stop-color="#4C004C"/>
</linearGradient>
</defs>
</svg>
